Coordinates
version=1
nRows=12
nColumns=24
inDegrees=yes

Units are S.I. units (second, meters, Newtons, ...)
Angles are in degrees.

endheader
time	pelvis_tilt	pelvis_list	pelvis_rotation	pelvis_tx	pelvis_ty	pelvis_tz	hip_flexion_r	hip_adduction_r	hip_rotation_r	knee_angle_r	ankle_angle_r	subtalar_angle_r	mtp_angle_r	hip_flexion_l	hip_adduction_l	hip_rotation_l	knee_angle_l	ankle_angle_l	subtalar_angle_l	mtp_angle_l	lumbar_extension	lumbar_bending	lumbar_rotation
      1.13783333	      1.19802936	     -2.01848968	     -1.68623396	     -0.15144368	      1.01551129	      0.35344273	    -15.94390193	      7.04651930	      2.04500210	     -8.67604522	     13.85367420	     -1.80329818	      2.09114471	     19.33571290	     -0.39407369	     -2.12406782	      5.31296567	      6.73517546	     -2.84654802	     -2.41810368	     -4.22865297	     -0.90018955	      8.72963181
      1.14200000	      1.20497884	     -1.87311308	     -1.77495112	     -0.14587446	      1.01493226	      0.35334079	    -16.05429770	      6.86522781	      2.10388448	     -9.13339343	     13.89570825	     -1.89872651	      2.09919644	     19.38745434	     -0.17947796	     -2.03445915	      4.70796604	      6.91964573	     -2.96538764	     -2.38519601	     -4.23447824	     -1.08341251	      8.75216601
      1.14616667	      1.17743509	     -1.74902098	     -1.85590036	     -0.14027230	      1.01431960	      0.35324260	    -16.10644790	      6.71283220	      2.15927161	     -9.63945300	     13.96385711	     -1.97574377	      2.12123780	     19.48789985	      0.01006312	     -1.95523971	      4.04477982	      7.12529131	     -3.02774763	     -2.31014200	     -4.14050948	     -1.28298335	      8.82493962
      1.15033333	      1.15909760	     -1.59765712	     -1.94309228	     -0.13461407	      1.01374775	      0.35312243	    -16.15305247	      6.52680092	      2.20622572	    -10.17527572	     13.97099237	     -2.07200897	      2.13846049	     19.56310321	      0.22746447	     -1.89750825	      3.38514300	      7.25109136	     -3.13371199	     -2.25375612	     -4.10354957	     -1.45432590	      8.87832187
      1.15450000	      1.07869668	     -1.47165295	     -2.02248258	     -0.12893089	      1.01310225	      0.35299771	    -16.11331876	      6.37518486	      2.27271035	    -10.75565997	     13.99534675	     -2.12462857	      2.19548322	     19.71495960	      0.41522514	     -1.83165269	      2.68594142	      7.34828443	     -3.19522436	     -2.09421359	     -3.95241059	     -1.64358048	      9.01496511
      1.15866667	      1.05914158	     -1.32796724	     -2.10374500	     -0.12318465	      1.01258075	      0.35286923	    -16.12944306	      6.20101521	      2.32216616	    -11.35491469	     13.96552551	     -2.21914002	      2.26279176	     19.77045118	      0.62191778	     -1.75772817	      2.03200705	      7.37019562	     -3.34491516	     -1.92028633	     -3.87546186	     -1.84005334	      9.09795809
      1.16283333	      1.01305295	     -1.19719187	     -2.17885671	     -0.11741012	      1.01202358	      0.35271324	    -16.09605128	      6.04303678	      2.36729345	    -11.99664389	     13.90239928	     -2.31892277	      2.36811873	     19.84177962	      0.81705611	     -1.63113778	      1.39825603	      7.30430791	     -3.59386827	     -1.67513583	     -3.76543452	     -2.01250415	      9.18700882
      1.16700000	      1.04264220	     -1.05594657	     -2.24878072	     -0.11157391	      1.01161238	      0.35253810	    -16.13797746	      5.86901166	      2.37595385	    -12.64826313	     13.80355225	     -2.43868814	      2.42562753	     19.81485177	      1.02623560	     -1.56152675	      0.78850873	      7.21836093	     -3.81222250	     -1.55200638	     -3.71290802	     -2.19355615	      9.21814204
      1.17116667	      0.97957159	     -0.95326003	     -2.31527411	     -0.10575788	      1.01108733	      0.35231426	    -16.04135944	      5.73682444	      2.39035013	    -13.37629996	     13.68488203	     -2.48033661	      2.67883391	     19.86092221	      1.19925187	     -1.28105946	      0.24203011	      6.90823185	     -4.37818476	     -1.08154055	     -3.58385795	     -2.29383698	      9.34883863
      1.17533333	      0.95386591	     -0.81374366	     -2.37948563	     -0.09984645	      1.01064674	      0.35209929	    -15.97750314	      5.56375352	      2.37827654	    -14.12091799	     13.53891876	     -2.52983101	      3.04841244	     19.84297909	      1.40976917	     -1.05976026	     -0.26008711	      6.53249361	     -4.88187160	     -0.47057004	     -3.47529595	     -2.48251805	      9.38377727
      1.17950000	      0.95791190	     -0.65722955	     -2.42899124	     -0.09386339	      1.01028611	      0.35187061	    -15.94226846	      5.37537227	      2.34868709	    -14.86746704	     13.31070762	     -2.61594656	      3.17876855	     19.79701668	      1.63605888	     -0.97328618	     -0.77644264	      6.26890108	     -5.06562604	     -0.27660421	     -3.38845749	     -2.72521604	      9.39657190
      1.18366667	      0.96323658	     -0.53477401	     -2.47272368	     -0.08791980	      1.00994606	      0.35157245	    -15.87765507	      5.21579061	      2.29041135	    -15.65878760	     12.99388178	     -2.74602556	      5.78788423	     19.72949585	      1.83616416	     -0.72579372	     -1.23466988	      5.73587307	     -5.66428754	      3.10131045	     -3.32756569	     -2.86023033	      9.37437436
